<svg width="1166" height="1849" viewBox="0 0 1166 1849" fill="none" xmlns="http://www.w3.org/2000/svg">
<path d="M1078.43 1206.96H709.477V1801.32H1078.43V1206.96Z" fill="#B2B2B2"/>
<path d="M710.919 1206.96H341.96V1801.32H710.919V1206.96Z" fill="#D1D1D1"/>
<path d="M517.618 486.248L501.89 805.736L427.93 1040.02H561.081L630.239 838.161L651.85 608.753L517.618 486.248Z" fill="#F7EBE7"/>
<path d="M513.901 1602.93L540.676 1729.58L450.747 1740.42L425.174 1615.72L513.901 1602.93Z" fill="#FCC9A7"/>
<path d="M546.075 1718.17C543.794 1711.34 536.59 1708.9 531.667 1713.29C522.062 1721.94 504.773 1732.55 479.199 1729.99C452.665 1727.31 442.699 1711.46 438.857 1700C436.816 1694.03 431.173 1690.98 426.131 1693.54L265.124 1775.7C255.399 1780.7 247.715 1789.96 243.873 1801.54C240.271 1812.39 247.474 1824.09 257.56 1823.85L535.749 1816.05C546.675 1815.8 555.079 1804.83 554.118 1792.16L549.556 1729.99C549.436 1729.01 549.317 1727.92 548.957 1726.94L546.075 1718.17Z" fill="#1F252A"/>
<path d="M512.338 990.53H303.546C303.546 990.53 176.397 983.338 168.833 1089.27C161.269 1195.19 355.294 1498.23 385.67 1660.11L560.244 1645.48L434.536 1205.31L747.184 1207.14C770.357 1207.26 793.409 1203.85 815.261 1196.17C876.134 1174.71 969.064 1144 918.396 973.83L512.338 990.53Z" fill="#092330"/>
<path d="M673.463 1603.4L715.966 1754.8L626.036 1765.64L584.734 1616.2L673.463 1603.4Z" fill="#FCC9A7"/>
<path d="M721.369 1743.31C719.088 1736.49 711.885 1734.05 706.963 1738.44C697.358 1747.09 680.068 1757.7 654.495 1755.14C627.96 1752.45 617.994 1736.61 614.152 1725.15C612.111 1719.18 606.468 1716.13 601.425 1718.69L440.419 1800.85C430.694 1805.85 423.009 1815.11 419.167 1826.69C415.565 1837.54 422.77 1849.24 432.855 1849L715.848 1841.19C726.773 1840.95 735.177 1829.98 734.216 1817.3L724.732 1755.14C724.612 1754.16 724.492 1753.06 724.132 1752.09L721.369 1743.31Z" fill="#1F252A"/>
<path d="M761.826 360.639C766.509 365.271 976.021 419.514 976.021 419.514L931.237 540.313L702.154 522.76L761.826 360.639Z" fill="#F7EBE7"/>
<path d="M675.384 389.78C675.384 389.78 538.871 440.367 517.62 486.2C524.944 550.926 547.396 613.215 584.376 666.483C629.76 731.819 685.83 844.085 675.505 990.481H1070.16C1070.16 990.481 1048.91 578.596 932.083 420.498L675.384 389.78Z" fill="#F7EBE7"/>
<path d="M720.161 455.082C758.942 447.037 783.916 408.64 775.991 369.268L752.819 254.076L612.463 283.208L635.636 398.401C643.56 437.773 681.38 463.127 720.161 455.082Z" fill="#FCC9A7"/>
<path d="M762.423 294.358C762.423 294.358 747.656 387.73 676.097 393.337C613.423 398.213 619.425 306.182 619.425 306.182L762.423 294.358Z" fill="#F4BE9A"/>
<path d="M681.742 342.13L694.109 339.205C756.182 324.577 794.843 261.679 780.435 198.781L764.106 126.985C749.699 63.9641 687.745 24.7138 625.792 39.3413L613.425 42.2668C551.352 56.8943 512.691 119.792 527.099 182.691L543.428 254.487C557.835 317.507 619.789 356.758 681.742 342.13Z" fill="#FCC9A7"/>
<path d="M741.531 228.678C738.65 233.676 735.888 241.234 734.928 252.692C733.847 267.197 726.643 280.972 714.637 289.017C680.178 312.177 653.884 253.545 602.977 263.906C602.977 263.906 583.046 266.954 579.084 289.504C575.122 311.933 547.387 272.683 541.264 245.866C535.14 219.049 532.019 378.61 657.366 365.079C657.366 365.079 720.64 363.007 763.263 297.549C767.946 290.357 770.707 281.947 770.947 273.292C771.307 260.493 769.506 241.112 757.5 227.216C753.298 222.096 744.893 222.827 741.531 228.678Z" fill="#1C2226"/>
<path d="M741.657 192.451C741.657 192.451 687.508 174.289 696.632 93.9594C696.632 93.9594 562.16 223.169 462.507 128.334C462.507 128.334 507.051 116.266 525.42 85.3049C558.918 28.8673 655.21 -48.9019 732.292 41.0569C732.292 41.0569 826.062 26.3076 799.168 172.948L741.657 192.451Z" fill="#1C2226"/>
<path d="M741.654 192.477C746.817 214.905 768.909 228.923 791.001 223.804C813.213 218.562 826.899 196.133 821.856 173.705C816.693 151.276 794.603 137.258 772.511 142.378C750.299 147.619 736.492 170.048 741.654 192.477Z" fill="#FCC9A7"/>
<path d="M673.221 450.633L731.211 451.729L690.629 537.056L646.807 455.264L673.221 450.633Z" fill="#0C2C40"/>
<path d="M780.92 364.431L706.241 452.927L754.866 509.608L844.316 384.787C844.316 384.787 821.382 347.365 780.92 364.431Z" fill="#FFF7F3"/>
<path d="M673.222 450.649L630.239 499.895L599.983 423.1C599.983 423.1 607.907 388.604 632.64 395.186L673.222 450.649Z" fill="#FFF7F3"/>
<path d="M689.067 509.496C689.067 509.496 632.997 657.965 646.924 868.6L702.154 919.797L766.628 856.777L697.111 499.867L689.067 509.496Z" fill="#0C2C40"/>
<path d="M793.891 862.03L673.826 902.133L665.902 973.687L825.107 925.415L793.891 862.03Z" fill="#FCC9A7"/>
<path d="M691.715 949.467C691.715 991.277 658.336 1025.29 617.034 1025.29C575.852 1025.29 542.355 991.399 542.355 949.467C542.355 907.657 575.732 873.648 617.034 873.648C658.216 873.648 691.715 907.535 691.715 949.467Z" fill="#FCC9A7"/>
<path d="M675.382 990.462H466.709C466.709 990.462 339.561 983.27 331.997 1089.2C324.433 1195.12 532.745 1517.66 563.121 1679.42L737.695 1664.79L597.7 1205.12L910.348 1206.95C933.52 1207.07 956.573 1203.66 978.424 1195.98C1039.3 1174.52 1132.23 1143.81 1081.56 973.64L675.382 990.462Z" fill="#0C2C40"/>
<path d="M45.8844 615.953H406.678C418.565 615.953 428.77 624.365 431.291 636.188L499.248 959.698C502.61 975.544 490.603 990.537 474.635 990.537H107.838C95.8312 990.537 85.5058 981.884 83.2246 969.938L21.2712 646.426C18.1496 630.581 30.0358 615.953 45.8844 615.953Z" fill="#B2B2B2"/>
<path d="M25.1133 615.952H385.787C397.673 615.952 407.88 624.364 410.401 636.188L478.357 959.698C481.718 975.544 469.832 990.537 453.743 990.537H87.0666C75.0602 990.537 64.7347 981.884 62.4535 969.938L0.500184 646.426C-2.62149 630.581 9.26479 615.952 25.1133 615.952Z" fill="#D1D1D1"/>
<path d="M489.404 962.879H735.897C743.461 962.879 749.464 969.096 749.464 976.653C749.464 984.333 743.341 990.427 735.897 990.427H484.602L489.404 962.879Z" fill="#B2B2B2"/>
<path d="M248.435 794.755C248.435 816.818 230.906 834.615 209.174 834.615C187.443 834.615 169.913 816.696 169.913 794.755C169.913 772.692 187.563 754.895 209.174 754.895C230.906 754.895 248.435 772.692 248.435 794.755Z" fill="white"/>
<path d="M889.939 534.577L1021.77 750.698L706.241 865.036L749.464 959.871C749.464 959.871 1019.25 929.153 1149.64 827.127C1161.65 817.741 1167.65 802.504 1165.61 787.267C1159.48 738.509 1133.31 620.148 1021.77 451.932C999.078 417.68 953.933 407.319 918.755 428.041C882.135 449.494 869.288 497.034 889.939 534.577Z" fill="#F7EBE7"/>
<path d="M790.163 834.618L1021.77 750.754L905.905 560.719" stroke="#EADDD8" stroke-width="0.7599" stroke-miterlimit="10" stroke-linecap="round" stroke-linejoin="round"/>
<path d="M633.357 763.001L576.327 610.144" stroke="#EADDD8" stroke-width="0.7599" stroke-miterlimit="10" stroke-linecap="round" stroke-linejoin="round"/>
<path d="M793.886 953.459C793.886 953.459 971.101 930.909 1060.43 878.981" stroke="#EADDD8" stroke-width="0.7599" stroke-miterlimit="10" stroke-linecap="round" stroke-linejoin="round"/>
</svg>
